Coordinates
version=1
nRows=29
nColumns=22
inDegrees=yes

Units are S.I. units (second, meters, Newtons, ...)
If the header above contains a line with 'inDegrees', this indicates whether rotational values are in degrees (yes) or radians (no).

endheader
time	pelvis_tilt	pelvis_list	pelvis_rotation	pelvis_tx	pelvis_ty	pelvis_tz	hip_flexion_r	hip_adduction_r	hip_rotation_r	knee_angle_r	ankle_angle_r	subtalar_angle_r	hip_flexion_l	hip_adduction_l	hip_rotation_l	knee_angle_l	ankle_angle_l	subtalar_angle_l	lumbar_extension	lumbar_bending	lumbar_rotation
      1.44000000	      5.06114590	     -1.41342218	      1.33377472	     -0.64815893	      0.95101095	      0.55405775	     -3.42161821	      3.01618591	    -11.97360385	    -15.05782984	     13.48441332	     -0.52619597	     -3.53812872	     -2.52305285	    -10.66770339	    -14.60401088	     21.11515781	     -7.11209364	    -13.05948181	      3.15745777	    -11.90543462
      1.45000000	      5.07043967	     -1.35064665	      1.21358902	     -0.64771979	      0.95081115	      0.55472177	     -3.28781225	      2.96545273	    -11.78306292	    -15.38394836	     13.68222150	     -0.65125473	     -3.55716497	     -2.48607212	    -10.75467689	    -14.68519230	     21.20841840	     -7.13192513	    -13.07412875	      3.09340181	    -11.94421133
      1.46000000	      5.05261446	     -1.30722992	      1.08449003	     -0.64719938	      0.95055842	      0.55545304	     -3.12846759	      2.93925303	    -11.58780008	    -15.71120622	     13.90387573	     -0.83597743	     -3.54940535	     -2.47510552	    -10.86310939	    -14.77432273	     21.29992355	     -7.16753440	    -13.04450246	      3.05367162	    -11.99003152
      1.47000000	      5.07891784	     -1.24810274	      0.97364468	     -0.64665944	      0.95036143	      0.55622733	     -3.04353752	      2.90708378	    -11.40808011	    -15.99221146	     14.05999866	     -0.92435489	     -3.56395135	     -2.45358272	    -10.90459741	    -14.91589252	     21.44340825	     -7.17350859	    -13.07477853	      2.98912817	    -12.05260402
      1.48000000	      5.09126908	     -1.21042346	      0.84805654	     -0.64604281	      0.95013031	      0.55707012	     -2.94784289	      2.90146834	    -11.21033244	    -16.27454431	     14.25433867	     -1.02303564	     -3.56548418	     -2.45927720	    -10.96776712	    -15.06757787	     21.58112593	     -7.19287146	    -13.08141034	      2.95161431	    -12.10784344
      1.49000000	      5.04815177	     -1.19536372	      0.70924358	     -0.64539224	      0.94980409	      0.55798937	     -2.79299696	      2.92567571	    -10.98929020	    -16.55579995	     14.43698798	     -1.27740973	     -3.48331986	     -2.49635025	    -11.04232578	    -15.27245887	     21.72321478	     -7.25364420	    -13.02045776	      2.93998570	    -12.15204866
      1.50000000	      5.08853443	     -1.16614582	      0.58997857	     -0.64464860	      0.94959910	      0.55893797	     -2.77361166	      2.94456014	    -10.79479169	    -16.76743162	     14.60942086	     -1.32534391	     -3.49787220	     -2.51828605	    -11.04594757	    -15.47361325	     21.90873971	     -7.25723550	    -13.05736442	      2.90784853	    -12.22559195
      1.51000000	      5.07970621	     -1.18139050	      0.43270667	     -0.64386690	      0.94929812	      0.55998316	     -2.68839510	      3.01313395	    -10.54885109	    -17.00291958	     14.79965556	     -1.45887131	     -3.44022654	     -2.59478689	    -11.11189732	    -15.72696342	     22.10328494	     -7.30509089	    -13.03728524	      2.92923581	    -12.25435875
      1.52000000	      5.06162140	     -1.19111056	      0.28609353	     -0.64307241	      0.94897258	      0.56107886	     -2.61615509	      3.08581788	    -10.29485391	    -17.19616737	     14.94462317	     -1.64442149	     -3.32840421	     -2.67213675	    -11.12065085	    -16.06369900	     22.30450604	     -7.36041452	    -13.01540321	      2.93537002	    -12.27455550
      1.53000000	      5.07068218	     -1.22979694	      0.12949837	     -0.64220752	      0.94866899	      0.56223109	     -2.58705102	      3.19338276	    -10.03520040	    -17.37214954	     15.11774600	     -1.75242602	     -3.24382145	     -2.78107929	    -11.12083731	    -16.41387194	     22.52652849	     -7.39851323	    -13.02657364	      2.97676250	    -12.29093976
      1.54000000	      5.06487046	     -1.28492870	     -0.03633070	     -0.64130658	      0.94832120	      0.56344236	     -2.55757760	      3.32468097	     -9.75502730	    -17.52257961	     15.27185065	     -1.87118105	     -3.10501086	     -2.91332265	    -11.11037128	    -16.84199723	     22.75855908	     -7.44482380	    -13.02643760	      3.03487909	    -12.27593434
      1.55000000	      5.08595746	     -1.35404933	     -0.18946428	     -0.64034556	      0.94799923	      0.56470954	     -2.59053227	      3.48401946	     -9.45911334	    -17.61704844	     15.46825482	     -1.93447310	     -2.96955981	     -3.06517883	    -11.05803612	    -17.32041289	     22.96430118	     -7.48035412	    -13.06018266	      3.10131072	    -12.29250615
      1.56000000	      5.03362341	     -1.46253179	     -0.39116724	     -0.63941008	      0.94752372	      0.56607117	     -2.51485858	      3.67845229	     -9.14764643	    -17.76070636	     15.55553682	     -2.10739742	     -2.69019864	     -3.26975120	    -11.05571002	    -17.93455866	     23.24721101	     -7.55887172	    -13.02635436	      3.21039348	    -12.18952343
      1.57000000	      5.01513308	     -1.58901682	     -0.57091268	     -0.63842159	      0.94707372	      0.56745126	     -2.49754372	      3.90019108	     -8.83509358	    -17.87690743	     15.69808634	     -2.25188437	     -2.40917941	     -3.49827526	    -10.99336417	    -18.62101375	     23.48250426	     -7.64291403	    -13.03475184	      3.34245157	    -12.12996791
      1.58000000	      5.00625134	     -1.74117296	     -0.75565269	     -0.63740281	      0.94661221	      0.56889310	     -2.51105036	      4.15387000	     -8.52653166	    -17.95964270	     15.83030443	     -2.36523876	     -2.08382186	     -3.76214141	    -10.90713451	    -19.41958495	     23.71884760	     -7.74397965	    -13.06772906	      3.49628022	    -12.03311994
      1.59000000	      4.99718470	     -1.91624710	     -0.93803283	     -0.63637177	      0.94612408	      0.57037800	     -2.53675870	      4.43522701	     -8.22444942	    -18.02419082	     15.95394430	     -2.47271470	     -1.69045699	     -4.05894486	    -10.78385487	    -20.35196736	     23.93606436	     -7.88373441	    -13.11473422	      3.67206460	    -11.91745886
      1.60000000	      4.99016590	     -2.11032025	     -1.11262661	     -0.63531618	      0.94560979	      0.57187978	     -2.57181951	      4.73775864	     -7.93162121	    -18.08594645	     16.06044817	     -2.58084812	     -1.22506411	     -4.38200253	    -10.60863174	    -21.43391712	     24.13090082	     -8.08074597	    -13.17478049	      3.86930941	    -11.78791195
      1.61000000	      4.99023361	     -2.31999707	     -1.27301712	     -0.63425259	      0.94508696	      0.57340148	     -2.62929160	      5.05899322	     -7.66155206	    -18.12669292	     16.16125506	     -2.68335638	     -0.68116345	     -4.72803464	    -10.36600490	    -22.68255026	     24.28564716	     -8.34935871	    -13.25937011	      4.07947333	    -11.64703146
      1.62000000	      4.99202543	     -2.54029602	     -1.41775405	     -0.63319019	      0.94454904	      0.57492712	     -2.69688871	      5.39178060	     -7.41661047	    -18.15819500	     16.24680249	     -2.78495925	     -0.04582483	     -5.08606782	    -10.03741572	    -24.10912728	     24.39494118	     -8.71183502	    -13.36428240	      4.29756171	    -11.49951872
      1.63000000	      4.99635369	     -2.76517512	     -1.53752388	     -0.63211206	      0.94400354	      0.57642556	     -2.77762801	      5.72772914	     -7.20916780	    -18.17924336	     16.32619179	     -2.88372878	      0.68637700	     -5.44429806	     -9.60856092	    -25.72105341	     24.43850711	     -9.18750873	    -13.48522123	      4.52039568	    -11.34456599
      1.64000000	      4.97425801	     -2.97174479	     -1.63992861	     -0.63104205	      0.94341383	      0.57788783	     -2.82073368	      6.03570506	     -7.07391559	    -18.22106754	     16.43376102	     -3.00387832	      1.54854736	     -5.76422721	     -9.05762509	    -27.51121115	     24.38695063	     -9.91952945	    -13.59397826	      4.71799914	    -11.16680883
      1.65000000	      4.98069518	     -3.19153940	     -1.71173866	     -0.62995672	      0.94286635	      0.57931728	     -2.91879691	      6.36171832	     -6.94710663	    -18.22172645	     16.50203261	     -3.07726603	      2.47909525	     -6.08423804	     -8.41426433	    -29.47324926	     24.29904378	    -10.63473900	    -13.75560167	      4.92825517	    -11.01564256
      1.66000000	      4.98846162	     -3.40217186	     -1.75090726	     -0.62880431	      0.94232406	      0.58066190	     -3.03310238	      6.67441393	     -6.86319417	    -18.20608969	     16.57500870	     -3.12766586	      3.49724387	     -6.36444873	     -7.67120967	    -31.57847588	     24.13337963	    -11.42129055	    -13.92126541	      5.13172770	    -10.86394739
      1.67000000	      5.01435301	     -3.62632328	     -1.74971041	     -0.62758889	      0.94182474	      0.58191273	     -3.19647019	      7.00191279	     -6.81381339	    -18.14051300	     16.57372709	     -3.14635001	      4.57531494	     -6.62267684	     -6.82844717	    -33.79492114	     23.92817079	    -12.07798501	    -14.11849276	      5.35664825	    -10.72922829
      1.68000000	      4.99080240	     -3.79196768	     -1.75478997	     -0.62630228	      0.94127494	      0.58311375	     -3.28979781	      7.25195343	     -6.82849814	    -18.11568038	     16.70845136	     -3.13907708	      5.75969721	     -6.77374730	     -5.95406530	    -36.06201838	     23.59180176	    -13.02026353	    -14.25935690	      5.50787807	    -10.55440807
      1.69000000	      5.01539297	     -3.98045930	     -1.70965407	     -0.62489619	      0.94083918	      0.58420326	     -3.48945480	      7.52992872	     -6.87127910	    -17.99547542	     16.70673788	     -3.10194560	      6.93268503	     -6.90582701	     -5.01797806	    -38.33869896	     23.24370217	    -13.58322890	    -14.46134204	      5.69288518	    -10.42717810
      1.70000000	      4.98090969	     -4.10590070	     -1.68564120	     -0.62336012	      0.94034988	      0.58522362	     -3.60767035	      7.72377213	     -6.95145964	    -17.92652841	     16.83119966	     -3.00305132	      8.18118292	     -6.92507155	     -4.12323343	    -40.56813992	     22.83423573	    -14.29344349	    -14.58335127	      5.80414050	    -10.24414131
      1.71000000	      4.99042726	     -4.22443412	     -1.62627141	     -0.62163277	      0.94000546	      0.58614583	     -3.83741870	      7.90993440	     -7.06771487	    -17.75145453	     16.85771425	     -2.89548174	      9.36782725	     -6.89340929	     -3.22723320	    -42.67528499	     22.42996592	    -14.67108001	    -14.74736714	      5.91017648	    -10.08829549
      1.72000000	      4.98150251	     -4.30235533	     -1.57891669	     -0.61979065	      0.93969649	      0.58701559	     -4.04989184	      8.04473354	     -7.18684154	    -17.58578101	     16.91589904	     -2.74553804	     10.55514625	     -6.78652601	     -2.40639684	    -44.63503609	     22.02396250	    -14.94177859	    -14.89133443	      5.97019107	     -9.94778337
